<svg width="180" height="180" viewBox="0 0 180 180" fill="none" xmlns="http://www.w3.org/2000/svg">
<path d="M143.006 111.27C143.006 113.954 142.792 116.591 142.381 119.161C141.509 124.633 139.741 129.816 137.231 134.556C133.317 141.952 127.595 148.275 120.643 152.965C114.41 157.166 107.191 160.05 99.3967 161.22C99.1327 161.257 98.8653 161.293 98.6013 161.33C96.3085 161.638 93.9656 161.798 91.586 161.798C89.4537 161.798 87.3481 161.671 85.2859 161.42C84.7278 161.353 84.173 161.277 83.6248 161.193C75.8275 160.003 68.6116 157.092 62.3917 152.868C55.9112 148.469 50.5102 142.644 46.6566 135.859C45.2428 133.369 44.0363 130.749 43.0604 128.022C41.1854 122.781 40.166 117.143 40.166 111.27C40.166 108.65 40.3665 106.077 40.7609 103.567C40.8445 103.025 40.9381 102.484 41.0417 101.949C43.4447 89.2685 50.6672 78.2593 60.7708 70.8162C62.0141 69.8971 63.3008 69.0347 64.6277 68.2326C71.8335 63.8643 80.2158 61.1973 89.203 60.7962C89.7712 60.7661 90.346 60.7494 90.9209 60.7427C91.1415 60.7394 91.3654 60.7394 91.586 60.7394C91.8099 60.7394 92.0305 60.7394 92.2511 60.7427C92.7825 60.7494 93.3139 60.7628 93.842 60.7895C103.511 61.1973 112.485 64.2287 120.052 69.1785C121.352 70.0274 122.608 70.9365 123.822 71.8957C130.87 77.4772 136.392 84.8501 139.664 93.3126C140.927 96.5813 141.856 100.014 142.411 103.567C142.805 106.077 143.006 108.65 143.006 111.27Z" fill="#DBCC24"/>
<path d="M170.93 89.2909C167.159 95.2208 150.642 110.119 141.955 117.77C142.362 115.207 142.574 112.578 142.575 109.903C142.576 107.29 142.379 104.724 141.991 102.221C141.444 98.6791 140.761 100.568 140.761 96.4999C141.963 88.1898 153.465 80.8699 160.482 81.0028C171.862 81.214 176.107 81.1525 170.93 89.2909ZM40.9297 119.5C39.7536 127.863 37.2517 139.069 30.1098 138.936C18.7297 138.721 6.89331 137.848 12.0697 129.709C15.9537 123.603 33.3458 107.988 41.7989 100.568C41.6963 101.101 41.6036 101.64 41.5208 102.18C41.1299 104.683 40.9307 107.248 40.9297 109.861C40.9273 115.716 41.5208 115.297 40.9297 119.5Z" fill="#E5D452"/>
<path d="M139.727 62.1999C150.219 62.1999 158.755 53.6639 158.755 43.1727C158.755 32.6815 150.219 24.1454 139.727 24.1454C129.236 24.1454 120.7 32.6814 120.7 43.1727C120.7 48.2259 122.683 52.8234 125.908 56.2358L117.699 67.7357C111.563 64.1749 104.614 61.8294 97.1852 61.0407V51.4122C104.873 48.9691 110.46 41.7636 110.46 33.2764C110.46 22.7852 101.924 14.2491 91.4323 14.2491C80.9411 14.2491 72.4051 22.7852 72.4051 33.2764C72.4051 42.2919 78.7119 49.8614 87.1448 51.8113V60.933C80.1741 61.5177 73.6031 63.4678 67.7055 66.5128L60.0095 55.7308C62.9623 52.378 64.7581 47.9828 64.7581 43.1727C64.7581 32.6814 56.2221 24.1454 45.7308 24.1454C35.2396 24.1454 26.7036 32.6814 26.7036 43.1727C26.7036 53.664 35.2396 62.1999 45.7308 62.1999C47.7879 62.1999 49.7647 61.8665 51.6204 61.2601L59.2663 71.9718C49.953 79.3765 43.3236 89.9081 41.0417 101.949C40.9381 102.484 40.8445 103.025 40.761 103.567C41.4896 107.002 42.8666 110.278 44.8084 113.336V113.339C52.9166 126.15 70.8108 135.057 91.586 135.057C111.636 135.057 129.002 126.765 137.481 114.669C139.888 111.24 141.576 107.504 142.411 103.567C141.856 100.014 140.927 96.5813 139.664 93.3126C136.713 85.682 131.93 78.9422 125.851 73.5979L134.509 61.4686C136.168 61.9422 137.917 62.1999 139.727 62.1999Z" fill="#E5D452"/>
<path d="M91.4325 46.0805C98.5047 46.0805 104.238 40.3474 104.238 33.2752C104.238 26.203 98.5047 20.4699 91.4325 20.4699C84.3603 20.4699 78.6272 26.203 78.6272 33.2752C78.6272 40.3474 84.3603 46.0805 91.4325 46.0805Z" fill="#E8F7FD"/>
<path d="M139.727 55.9789C146.799 55.9789 152.532 50.2458 152.532 43.1736C152.532 36.1015 146.799 30.3683 139.727 30.3683C132.655 30.3683 126.922 36.1015 126.922 43.1736C126.922 50.2458 132.655 55.9789 139.727 55.9789Z" fill="#E8F7FD"/>
<path d="M45.7311 55.9789C52.8032 55.9789 58.5364 50.2458 58.5364 43.1736C58.5364 36.1015 52.8032 30.3683 45.7311 30.3683C38.6589 30.3683 32.9258 36.1015 32.9258 43.1736C32.9258 50.2458 38.6589 55.9789 45.7311 55.9789Z" fill="#E8F7FD"/>
<path d="M45.7312 50.4825C49.7677 50.4825 53.04 47.2102 53.04 43.1737C53.04 39.1371 49.7677 35.8649 45.7312 35.8649C41.6946 35.8649 38.4224 39.1371 38.4224 43.1737C38.4224 47.2102 41.6946 50.4825 45.7312 50.4825Z" fill="#333333"/>
<path d="M47.014 43.1736C48.5683 43.1736 49.8283 41.9136 49.8283 40.3593C49.8283 38.805 48.5683 37.545 47.014 37.545C45.4597 37.545 44.1997 38.805 44.1997 40.3593C44.1997 41.9136 45.4597 43.1736 47.014 43.1736Z" fill="#E8F7FD"/>
<path d="M118.822 99.3474C117.307 103.208 114.222 107.202 109.841 110.235C105.435 113.292 99.72 115.377 92.9839 115.377C92.9021 115.377 92.8173 115.377 92.7324 115.374C86.2145 115.326 80.0329 113.768 74.8544 110.874C74.6119 110.738 74.3725 110.602 74.1362 110.459C69.903 107.944 66.6304 104.638 64.876 101.087C62.9427 97.1748 63.073 93.4295 65.2457 90.5447C67.291 87.8327 68.9879 86.851 71 86.851C72.3514 86.851 73.8483 87.2964 75.6877 87.96C76.2301 88.157 76.8058 88.3721 77.4148 88.5994C79.3299 89.3175 81.4783 90.1235 83.9661 90.775C84.9691 91.0387 86.0236 91.278 87.1447 91.475C88.8023 91.7689 90.5961 91.972 92.5506 92.0356C94.7869 92.1083 96.7898 91.9174 98.6018 91.5871C101.381 91.0781 103.711 90.2387 105.738 89.5084C107.341 88.9327 108.738 88.4297 110.059 88.166C112.804 87.6206 115.232 88.1115 118.525 91.1205C120.125 92.581 120.24 95.7354 118.822 99.3474Z" fill="#CB624B"/>
<path d="M109.841 110.235C105.435 113.292 99.7198 115.377 92.9837 115.377C92.9019 115.377 92.8171 115.377 92.7322 115.374C86.2143 115.325 80.0327 113.768 74.8542 110.874C74.6117 110.738 74.3723 110.601 74.136 110.459C76.4965 105.962 83.6265 102.699 92.0504 102.699C100.335 102.699 107.365 105.856 109.841 110.235Z" fill="#9E4C3A"/>
<path d="M93.0091 89.6307V92.782C93.0091 95.9456 90.4456 98.5121 87.279 98.5121C84.1156 98.5121 81.552 95.9456 81.552 92.782V89.5186C83.2095 89.8125 85.0034 90.0155 86.9578 90.0791C89.1941 90.1519 91.197 89.9609 93.0091 89.6307Z" fill="#E8F7FD"/>
<path d="M104.384 89.6307V92.782C104.384 95.9456 101.82 98.5121 98.6538 98.5121C95.4903 98.5121 92.9268 95.9456 92.9268 92.782V89.5186C94.5843 89.8125 96.3781 90.0155 98.3326 90.0791C100.569 90.1519 102.572 89.9609 104.384 89.6307Z" fill="#E8F7FD"/>
<path d="M91.1233 40.0515C95.1598 40.0515 98.4321 36.7793 98.4321 32.7427C98.4321 28.7062 95.1598 25.4339 91.1233 25.4339C87.0867 25.4339 83.8145 28.7062 83.8145 32.7427C83.8145 36.7793 87.0867 40.0515 91.1233 40.0515Z" fill="#333333"/>
<path d="M92.4061 32.7427C93.9604 32.7427 95.2204 31.4827 95.2204 29.9284C95.2204 28.3741 93.9604 27.1141 92.4061 27.1141C90.8518 27.1141 89.5918 28.3741 89.5918 29.9284C89.5918 31.4827 90.8518 32.7427 92.4061 32.7427Z" fill="#E8F7FD"/>
<path d="M139.727 49.5742C143.764 49.5742 147.036 46.3019 147.036 42.2654C147.036 38.2288 143.764 34.9565 139.727 34.9565C135.691 34.9565 132.418 38.2288 132.418 42.2654C132.418 46.3019 135.691 49.5742 139.727 49.5742Z" fill="#333333"/>
<path d="M141.01 42.2654C142.564 42.2654 143.824 41.0054 143.824 39.4511C143.824 37.8968 142.564 36.6368 141.01 36.6368C139.456 36.6368 138.196 37.8968 138.196 39.4511C138.196 41.0054 139.456 42.2654 141.01 42.2654Z" fill="#E8F7FD"/>
<path d="M120.73 153.554V170.057C120.73 173.476 117.956 176.247 114.536 176.247H105.639C102.22 176.247 99.4463 173.476 99.4463 170.057V161.154C107.24 159.984 114.46 157.1 120.693 152.898C120.72 153.112 120.73 153.333 120.73 153.554ZM83.6744 161.127V170.057C83.6744 173.476 80.5542 176.247 77.4846 176.247H68.5843C65.1652 176.247 62.3945 173.476 62.3945 170.057V153.554C62.3945 153.3 62.4112 153.049 62.4413 152.802C68.6612 157.026 75.877 159.937 83.6744 161.127Z" fill="#DBCC24"/>
<path d="M120.571 88.8843C114.335 83.1875 109.874 84.7965 104.711 86.6601C101.441 87.8389 97.7383 89.1752 92.6506 89.0085C86.6085 88.8115 82.0995 87.1207 78.4785 85.7602C72.6302 83.5693 68.0122 81.8361 62.8276 88.7237C59.9701 92.5144 59.7277 97.5081 62.1579 102.429C66.0426 110.292 76.9937 118.283 92.7082 118.404C92.8021 118.407 92.893 118.407 92.987 118.407C99.8867 118.407 106.356 116.42 111.71 112.65C116.228 109.471 119.85 105.026 121.643 100.457C123.558 95.5719 123.158 91.2478 120.571 88.8843ZM118.822 99.3475C115.783 107.093 106.414 115.377 92.9839 115.377C92.9021 115.377 92.8173 115.377 92.7324 115.374C86.2145 115.326 80.0329 113.768 74.8544 110.874C70.2727 108.314 66.7274 104.838 64.876 101.087C62.9427 97.1748 63.073 93.4295 65.2457 90.5448C67.2911 87.8328 68.9879 86.851 71 86.851C72.7514 86.851 74.7453 87.5995 77.4149 88.5994C79.33 89.3176 81.4783 90.1236 83.9661 90.7751C86.4539 91.4296 89.2811 91.9296 92.5506 92.0356C98.211 92.2205 102.387 90.7175 105.738 89.5085C110.668 87.7328 113.644 86.6601 118.525 91.1205C120.125 92.5811 120.24 95.7355 118.822 99.3475Z" fill="#C78B22"/>
</svg>
