<svg width="304" height="254" viewBox="0 0 304 254" fill="none" xmlns="http://www.w3.org/2000/svg">
<circle cx="264.5" cy="2.5" r="2.5" fill="#D9D9D9"/>
<circle cx="284.5" cy="29.5" r="2.5" fill="#D9D9D9"/>
<circle cx="274.5" cy="15.5" r="2.5" fill="#D9D9D9"/>
<circle cx="293.5" cy="45.5" r="2.5" fill="#D9D9D9"/>
<circle cx="298.5" cy="62.5" r="2.5" fill="#D9D9D9"/>
<circle cx="301.5" cy="80.5" r="2.5" fill="#D9D9D9"/>
<circle cx="301.5" cy="98.5" r="2.5" fill="#D9D9D9"/>
<circle cx="296.5" cy="115.5" r="2.5" fill="#D9D9D9"/>
<circle cx="286.5" cy="132.5" r="2.5" fill="#D9D9D9"/>
<circle cx="269.5" cy="142.5" r="2.5" fill="#D9D9D9"/>
<circle cx="249.5" cy="143.5" r="2.5" fill="#D9D9D9"/>
<circle cx="229.5" cy="138.5" r="2.5" fill="#D9D9D9"/>
<circle cx="208.5" cy="130.5" r="2.5" fill="#D9D9D9"/>
<circle cx="187.5" cy="120.5" r="2.5" fill="#D9D9D9"/>
<circle cx="169.5" cy="112.5" r="2.5" fill="#D9D9D9"/>
<circle cx="149.5" cy="101.5" r="2.5" fill="#D9D9D9"/>
<circle cx="131.5" cy="92.5" r="2.5" fill="#D9D9D9"/>
<circle cx="113.5" cy="85.5" r="2.5" fill="#D9D9D9"/>
<circle cx="91.5" cy="75.5" r="2.5" fill="#D9D9D9"/>
<circle cx="70.5" cy="70.5" r="2.5" fill="#D9D9D9"/>
<circle cx="44.5" cy="68.5" r="2.5" fill="#D9D9D9"/>
<circle cx="25.5" cy="74.5" r="2.5" fill="#D9D9D9"/>
<circle cx="11.5" cy="87.5" r="2.5" fill="#D9D9D9"/>
<circle cx="4.5" cy="104.5" r="2.5" fill="#D9D9D9"/>
<circle cx="2.5" cy="125.5" r="2.5" fill="#D9D9D9"/>
<circle cx="4.5" cy="146.5" r="2.5" fill="#D9D9D9"/>
<circle cx="9.5" cy="165.5" r="2.5" fill="#D9D9D9"/>
<circle cx="17.5" cy="185.5" r="2.5" fill="#D9D9D9"/>
<circle cx="25.5" cy="202.5" r="2.5" fill="#D9D9D9"/>
<circle cx="36.5" cy="222.5" r="2.5" fill="#D9D9D9"/>
<circle cx="44.5" cy="237.5" r="2.5" fill="#D9D9D9"/>
<circle cx="53.5" cy="251.5" r="2.5" fill="#D9D9D9"/>
</svg>
