<svg width="237" height="282" viewBox="0 0 237 282" fill="none" xmlns="http://www.w3.org/2000/svg">
<circle cx="2.5" cy="58.5" r="2.5" fill="#D9D9D9"/>
<circle cx="13.5" cy="43.5" r="2.5" fill="#D9D9D9"/>
<circle cx="22.5" cy="33.5" r="2.5" fill="#D9D9D9"/>
<circle cx="33.5" cy="23.5" r="2.5" fill="#D9D9D9"/>
<circle cx="47.5" cy="14.5" r="2.5" fill="#D9D9D9"/>
<circle cx="65.5" cy="7.5" r="2.5" fill="#D9D9D9"/>
<circle cx="82.5" cy="3.5" r="2.5" fill="#D9D9D9"/>
<circle cx="100.5" cy="2.5" r="2.5" fill="#D9D9D9"/>
<circle cx="119.5" cy="2.5" r="2.5" fill="#D9D9D9"/>
<circle cx="136.5" cy="5.5" r="2.5" fill="#D9D9D9"/>
<circle cx="157.5" cy="15.5" r="2.5" fill="#D9D9D9"/>
<circle cx="168.5" cy="23.5" r="2.5" fill="#D9D9D9"/>
<circle cx="182.5" cy="35.5" r="2.5" fill="#D9D9D9"/>
<circle cx="192.5" cy="47.5" r="2.5" fill="#D9D9D9"/>
<circle cx="204.5" cy="63.5" r="2.5" fill="#D9D9D9"/>
<circle cx="215.5" cy="80.5" r="2.5" fill="#D9D9D9"/>
<circle cx="223.5" cy="99.5" r="2.5" fill="#D9D9D9"/>
<circle cx="231.5" cy="121.5" r="2.5" fill="#D9D9D9"/>
<circle cx="234.5" cy="145.5" r="2.5" fill="#D9D9D9"/>
<circle cx="229.5" cy="168.5" r="2.5" fill="#D9D9D9"/>
<circle cx="215.5" cy="177.5" r="2.5" fill="#D9D9D9"/>
<circle cx="197.5" cy="175.5" r="2.5" fill="#D9D9D9"/>
<circle cx="179.5" cy="170.5" r="2.5" fill="#D9D9D9"/>
<circle cx="160.5" cy="166.5" r="2.5" fill="#D9D9D9"/>
<circle cx="141.5" cy="163.5" r="2.5" fill="#D9D9D9"/>
<circle cx="123.5" cy="162.5" r="2.5" fill="#D9D9D9"/>
<circle cx="105.5" cy="164.5" r="2.5" fill="#D9D9D9"/>
<circle cx="92.5" cy="175.5" r="2.5" fill="#D9D9D9"/>
<circle cx="94.5" cy="191.5" r="2.5" fill="#D9D9D9"/>
<circle cx="100.5" cy="206.5" r="2.5" fill="#D9D9D9"/>
<circle cx="110.5" cy="221.5" r="2.5" fill="#D9D9D9"/>
<circle cx="121.5" cy="234.5" r="2.5" fill="#D9D9D9"/>
<circle cx="131.5" cy="245.5" r="2.5" fill="#D9D9D9"/>
<circle cx="142.5" cy="256.5" r="2.5" fill="#D9D9D9"/>
<circle cx="154.5" cy="267.5" r="2.5" fill="#D9D9D9"/>
<circle cx="165.5" cy="279.5" r="2.5" fill="#D9D9D9"/>
</svg>
