<svg xmlns="http://www.w3.org/2000/svg" enable-background="new 0 0 100 100" viewBox="0 0 100 100" id="kakao-talk">
  <g id="Layer_2">
    <polygon points="37.36 47.02 42.864 47.02 40.112 39.201"></polygon>
    <path d="M50.216,5.92C4.432,5.679-16.796,54.016,24.841,75.488c-0.732,2.523-4.702,16.232-4.86,17.309
			c-0.113,0.843,0.528,1.548,1.569,1.187c1.503-0.21,17.426-11.395,20.182-13.337C107.755,88.549,120.756,8.953,50.216,5.92z
			 M26.563,54.095c-0.09,3.462-5.417,3.475-5.511,0c0,0,0-16.37,0-16.37h-4.3c-3.561-0.09-3.568-5.304,0-5.396c0,0,14.11,0,14.11,0
			c3.563,0.094,3.568,5.301,0,5.396c0,0-4.3,0-4.3,0V54.095z M49.722,56.311c-1.237,0.652-3.629,0.494-4.045-0.837
			c0,0-1.365-3.572-1.365-3.572l-8.403,0l-1.365,3.574c-0.414,1.328-2.808,1.488-4.043,0.835c-0.76-0.35-1.49-1.314-0.653-3.913
			l6.591-17.349c1.349-3.558,5.988-3.574,7.345,0.003c0,0,6.589,17.341,6.589,17.341C51.212,54.997,50.482,55.961,49.722,56.311z
			 M63.649,56.324h-8.841c-1.456,0-2.641-1.133-2.641-2.526V35.083c0.095-3.627,5.529-3.638,5.626,0c0,0,0,16.189,0,16.189h5.856
			C67.127,51.358,67.135,56.236,63.649,56.324z M85.22,54.249c-0.245,2.362-3.565,3.233-4.928,1.278c0,0-6.462-8.562-6.462-8.562
			l-0.956,0.956v6.012c-0.091,3.627-5.417,3.641-5.512,0.001c0,0,0-18.851,0-18.851c0.096-3.63,5.414-3.637,5.511,0
			c0,0,0,5.923,0,5.923l7.688-7.688c0.922-0.935,2.526-0.734,3.425,0.201c0.935,0.889,1.138,2.511,0.202,3.425l-6.28,6.279
			l6.783,8.986C85.134,52.79,85.324,53.526,85.22,54.249z"></path>
  </g>
</svg>
