<svg width="242" height="124" viewBox="0 0 242 124" fill="none" xmlns="http://www.w3.org/2000/svg">
<circle cx="239.5" cy="18.5" r="2.5" fill="#D9D9D9"/>
<circle cx="235.5" cy="33.5" r="2.5" fill="#D9D9D9"/>
<circle cx="223.5" cy="49.5" r="2.5" fill="#D9D9D9"/>
<circle cx="208.5" cy="60.5" r="2.5" fill="#D9D9D9"/>
<circle cx="191.5" cy="65.5" r="2.5" fill="#D9D9D9"/>
<circle cx="174.5" cy="67.5" r="2.5" fill="#D9D9D9"/>
<circle cx="155.5" cy="66.5" r="2.5" fill="#D9D9D9"/>
<circle cx="137.5" cy="60.5" r="2.5" fill="#D9D9D9"/>
<circle cx="121.5" cy="54.5" r="2.5" fill="#D9D9D9"/>
<circle cx="102.5" cy="46.5" r="2.5" fill="#D9D9D9"/>
<circle cx="85.5" cy="40.5" r="2.5" fill="#D9D9D9"/>
<circle cx="68.5" cy="33.5" r="2.5" fill="#D9D9D9"/>
<circle cx="49.5" cy="31.5" r="2.5" fill="#D9D9D9"/>
<circle cx="30.5" cy="36.5" r="2.5" fill="#D9D9D9"/>
<circle cx="16.5" cy="47.5" r="2.5" fill="#D9D9D9"/>
<circle cx="5.5" cy="65.5" r="2.5" fill="#D9D9D9"/>
<circle cx="2.5" cy="84.5" r="2.5" fill="#D9D9D9"/>
<circle cx="5.5" cy="103.5" r="2.5" fill="#D9D9D9"/>
<circle cx="10.5" cy="121.5" r="2.5" fill="#D9D9D9"/>
<circle cx="238.5" cy="2.5" r="2.5" fill="#D9D9D9"/>
</svg>
