<svg width="213" height="231" viewBox="0 0 213 231" fill="none" xmlns="http://www.w3.org/2000/svg">
<circle cx="3.97683" cy="61.3048" r="2.5" transform="rotate(119.265 3.97683 61.3048)" fill="#D9D9D9"/>
<circle cx="18.9768" cy="52.3048" r="2.5" transform="rotate(119.265 18.9768 52.3048)" fill="#D9D9D9"/>
<circle cx="37.9768" cy="42.3048" r="2.5" transform="rotate(119.265 37.9768 42.3048)" fill="#D9D9D9"/>
<circle cx="57.9768" cy="33.3048" r="2.5" transform="rotate(119.265 57.9768 33.3048)" fill="#D9D9D9"/>
<circle cx="78.9768" cy="25.3048" r="2.5" transform="rotate(119.265 78.9768 25.3048)" fill="#D9D9D9"/>
<circle cx="99.9768" cy="17.3048" r="2.5" transform="rotate(119.265 99.9768 17.3048)" fill="#D9D9D9"/>
<circle cx="120.977" cy="10.3048" r="2.5" transform="rotate(119.265 120.977 10.3048)" fill="#D9D9D9"/>
<circle cx="140.977" cy="6.30485" r="2.5" transform="rotate(119.265 140.977 6.30485)" fill="#D9D9D9"/>
<circle cx="160.977" cy="4.30485" r="2.5" transform="rotate(119.265 160.977 4.30485)" fill="#D9D9D9"/>
<circle cx="182.977" cy="6.30485" r="2.5" transform="rotate(119.265 182.977 6.30485)" fill="#D9D9D9"/>
<circle cx="201.977" cy="19.3048" r="2.5" transform="rotate(119.265 201.977 19.3048)" fill="#D9D9D9"/>
<circle cx="208.977" cy="41.3048" r="2.5" transform="rotate(119.265 208.977 41.3048)" fill="#D9D9D9"/>
<circle cx="194.977" cy="62.3048" r="2.5" transform="rotate(119.265 194.977 62.3048)" fill="#D9D9D9"/>
<circle cx="174.977" cy="76.3048" r="2.5" transform="rotate(119.265 174.977 76.3048)" fill="#D9D9D9"/>
<circle cx="151.977" cy="90.3048" r="2.5" transform="rotate(119.265 151.977 90.3048)" fill="#D9D9D9"/>
<circle cx="128.977" cy="102.305" r="2.5" transform="rotate(119.265 128.977 102.305)" fill="#D9D9D9"/>
<circle cx="105.977" cy="113.305" r="2.5" transform="rotate(119.265 105.977 113.305)" fill="#D9D9D9"/>
<circle cx="85.9768" cy="124.305" r="2.5" transform="rotate(119.265 85.9768 124.305)" fill="#D9D9D9"/>
<circle cx="65.9768" cy="135.305" r="2.5" transform="rotate(119.265 65.9768 135.305)" fill="#D9D9D9"/>
<circle cx="47.9768" cy="147.305" r="2.5" transform="rotate(119.265 47.9768 147.305)" fill="#D9D9D9"/>
<circle cx="33.9768" cy="162.305" r="2.5" transform="rotate(119.265 33.9768 162.305)" fill="#D9D9D9"/>
<circle cx="28.9768" cy="184.305" r="2.5" transform="rotate(119.265 28.9768 184.305)" fill="#D9D9D9"/>
<circle cx="42.9768" cy="203.305" r="2.5" transform="rotate(119.265 42.9768 203.305)" fill="#D9D9D9"/>
<circle cx="64.9768" cy="215.305" r="2.5" transform="rotate(119.265 64.9768 215.305)" fill="#D9D9D9"/>
<circle cx="86.9768" cy="223.305" r="2.5" transform="rotate(119.265 86.9768 223.305)" fill="#D9D9D9"/>
<circle cx="108.977" cy="227.305" r="2.5" transform="rotate(119.265 108.977 227.305)" fill="#D9D9D9"/>
</svg>
