<svg xmlns="http://www.w3.org/2000/svg" width="2000" height="2000" viewBox="0 0 2000 2000" id="mascot">
  <path fill="#995e92" d="m1671.96178,1519.28493c-.18153,68.48028-55.78532,123.86667-124.19299,123.86667h-.39937l-4.13454-.03631c-43.27144-.10848-81.32047-22.37957-103.4822-56.00316-22.23434,33.4425-60.28293,55.49531-103.4822,55.49531h-4.49761c-43.27144-.10892-81.28372-22.34282-103.44589-55.9301-22.2339,33.47836-60.28248,55.53117-103.4822,55.53117h-4.53392c-43.19883-.10848-81.21111-22.30695-103.37328-55.85793-22.2339,33.51467-60.31879,55.60423-103.55437,55.60423h-4.13498c-43.27144,0-81.35634-22.12586-103.59112-55.64053-22.16128,33.44206-60.10139,55.53161-103.26436,55.64053h-4.49761c-42.98143,0-80.84893-21.83541-103.15544-54.98746-21.07385,32.17265-56.76471,54.11698-98.0415,56.07533-3.40929.29001-6.81903.43524-10.22876.43524-60.13726,0-112.98483-43.7793-122.59682-105.04162-.9794-6.4564-1.48725-12.84019-1.48725-19.15137v-.03631c-.03631-31.48326,11.8971-60.97187,32.10048-83.31513l20.71079-53.79066c19.7677,13.05803,43.34406,20.49383,68.11766,20.49383,3.37299,0,6.78228-.14523,10.22832-.43568,39.89846-1.88618,74.53731-22.45174,95.829-52.88343.76156-1.05157,1.48681-2.10358,2.2125-3.19189,1.12418,1.66834,2.28511,3.30081,3.48191,4.93285,22.63327,30.35908,58.86874,50.05461,99.67398,50.05461h4.49761c16.68428-.03631,32.60789-3.37343,47.11642-9.39415,22.99545-9.50351,42.5462-25.753,56.14794-46.24594,22.2339,33.51467,60.31879,55.64009,103.59068,55.64009h4.13498c43.23514,0,81.32003-22.08911,103.55481-55.60378,22.16128,33.55098,60.1377,55.74857,103.37328,55.85749h4.49761c43.19883,0,81.28372-22.05281,103.51851-55.53117,22.16128,33.58684,60.17356,55.82162,103.40959,55.93055h4.49761c43.19883,0,81.24742-22.05325,103.51807-55.49531,17.15627,26.07887,43.92452,45.33916,75.29931,52.73865,9.06783,2.10358,18.49829,3.26407,28.18289,3.26407l4.13498.03631h.36262c27.34828,0,52.62973-8.84999,73.15943-23.86637l21.90758,56.87364c20.16663,22.16128,32.4268,51.65033,32.31788,83.96777Z"></path>
  <path fill="#b972b0" d="m1617.73876,1378.44945c-20.54962,15.00185-45.82628,23.87028-73.17364,23.87028h-.35148l-4.14092-.03911c-9.6887,0-19.10414-1.17222-28.16763-3.28155-31.37144-7.38432-58.13316-26.64441-75.32255-52.74133-22.26885,33.44166-60.3207,55.51498-103.49017,55.51498h-4.49335c-43.24721-.11732-81.26043-22.34658-103.41196-55.94515-22.26837,33.48125-60.32023,55.55409-103.52928,55.55409h-4.4924c-43.24816-.11684-81.2218-22.30748-103.37286-55.86646-22.22974,33.51987-60.3207,55.59319-103.56839,55.59319h-4.1414c-43.24816,0-81.33912-22.11243-103.56839-55.6323-13.59547,20.47141-33.1684,36.72369-56.1793,46.25597-14.49442,6.01657-30.39427,9.3377-47.11534,9.37633h-4.49335c-40.7864,0-77.0413-19.68977-99.66114-50.04542-1.21085-1.64101-2.34396-3.28203-3.47708-4.92256-.74206,1.0549-1.44548,2.10981-2.22712,3.16471-21.29168,30.43338-55.90556,51.02211-95.83307,52.89728-3.4375.27326-6.83684.42969-10.19612.42969-24.80834,0-48.36625-7.42247-68.13423-20.47141l27.77704-72.15784,99.07599-257.10445c7.69621-19.96351,17.18939-38.83302,28.24584-56.45257,26.60482-42.27147,62.27361-77.47146,103.88076-103.33375,50.63153-31.52786,110.09286-49.30384,172.48378-49.30384h89.93381v-65.16458c-87.74627-21.64363-161.46692-79.112-204.75418-155.99687-26.37067-46.76434-41.41114-100.79474-41.41114-158.18537,0-41.05966,7.69621-80.36195,21.68226-116.53864,46.88118-121.03151,164.47472-207.09767,301.87583-207.09767,134.39282,0,249.91566,82.35492,298.75023,199.20592,16.01764,38.28649,24.88608,80.32332,24.88608,124.43038,0,57.39063-15.08006,111.38192-41.45072,158.18537-42.19278,75.0097-113.45214,131.57959-198.38518,154.35586v66.80559h89.93334c62.3523,0,121.81315,17.77597,172.44468,49.30384,41.60715,25.86229,77.31504,61.06228,103.88123,103.37286,11.0555,17.61955,20.54962,36.48905,28.24584,56.41346l121.22704,314.61192,4.21866,10.93913Z"></path>
  <path fill="#e8f7fd" d="m1014.00663,715.47272c-138.42966,0-251.04788-112.61822-251.04788-251.04788s112.61822-251.05142,251.04788-251.05142,251.05142,112.62176,251.05142,251.05142-112.62176,251.04788-251.05142,251.04788Z"></path>
  <path fill="#666" d="m1014.00803,623.64738c-87.79804,0-159.22426-71.42621-159.22426-159.22426s71.42621-159.22113,159.22426-159.22113,159.22426,71.42621,159.22426,159.22113-71.42621,159.22426-159.22426,159.22426Z"></path>
  <path fill="#333" d="m1014.00803,559.59866c-52.48055,0-95.17553-42.69498-95.17553-95.17553,0-52.47742,42.69498-95.1724,95.17553-95.1724s95.17553,42.69498,95.17553,95.1724c0,52.48055-42.69498,95.17553-95.17553,95.17553Z"></path>
  <circle cx="1081.436" cy="398.914" r="45.071" fill="#e8f7fd"></circle>
  <path fill="#915a8a" d="m1330.84051,959.26429c-67.6767-61.82389-116.08367-44.36198-172.11937-24.13765-35.483,12.7923-75.66833,27.29448-130.88231,25.48584-65.57242-2.1376-114.50566-20.48727-153.80303-35.25258-63.46814-23.77596-113.58478-42.58606-169.8509,32.16139-31.01069,41.13912-33.64125,95.33347-7.26745,148.73861,42.15834,85.33651,161.00464,172.05414,331.546,173.36962,1.01963.03292,2.00634.03292,3.02556.03292,74.87912,0,145.08843-21.57253,203.1959-62.48143,49.03199-34.49629,88.32936-82.73867,107.797-132.32905,20.78352-53.01074,16.44248-99.93744-11.6414-125.58767Zm-18.97429,113.55167c-32.98371,84.05395-134.66416,173.96152-280.41013,173.96152-.88796,0-1.80843,0-2.72931-.03292-70.73558-.52627-137.82098-17.42899-194.02127-48.83429-49.72245-27.78763-88.19769-65.50679-108.29035-106.21838-20.98062-42.4544-19.56679-83.10016,4.01227-114.40671,22.19735-29.43208,40.61245-40.08678,62.44851-40.08678,19.0072,0,40.64536,8.12249,69.61721,18.97469,20.78352,7.79372,44.09884,16.54103,71.09727,23.61138,26.99883,7.10306,57.68035,12.52916,93.16295,13.68006,61.42928,2.00593,106.74486-14.30488,143.11541-27.42595,53.5039-19.27074,85.79715-30.91194,138.77437,17.49462,17.36336,15.85058,18.6134,50.08393,3.22306,89.28275Z"></path>
  <path fill="#cb624b" d="m1311.86622,1072.81595c-16.44248,41.89541-49.91955,85.23776-97.47107,118.15564-47.81486,33.18101-109.83585,55.80588-182.93905,55.80588-.88796,0-1.80843,0-2.72931-.03292-70.73558-.52627-137.82098-17.42899-194.02127-48.83429-2.63096-1.47966-5.229-2.95953-7.79412-4.50522-45.94019-27.29448-81.45571-63.17188-100.49623-101.71316-20.98062-42.4544-19.56679-83.10016,4.01227-114.40671,22.19735-29.43208,40.61245-40.08678,62.44851-40.08678,14.66656,0,30.91154,4.83399,50.87294,12.03581,5.88654,2.1376,12.13436,4.47251,18.74427,6.93888,20.78352,7.79372,44.09884,16.54103,71.09727,23.61138,10.88471,2.86098,22.32902,5.45882,34.49629,7.59642,17.98838,3.18974,37.45602,5.39318,58.66666,6.08364,24.26952.78921,46.00603-1.28256,65.67117-4.86691,30.15606-5.52465,55.4444-14.63385,77.44424-22.55904,17.39627-6.24822,32.55619-11.70704,46.89399-14.56821,29.79397-5.91925,56.13485-.59191,91.88039,32.06284,17.36336,15.85058,18.6134,50.08393,3.22306,89.28275Z"></path>
  <path fill="#9e4c3a" d="m1214.39515,1190.97159c-47.81486,33.18101-109.83585,55.80588-182.93905,55.80588-.88796,0-1.80843,0-2.72931-.03292-70.73558-.52627-137.82098-17.42899-194.02127-48.83429-2.63096-1.47966-5.229-2.95953-7.79412-4.50522,25.61751-48.80117,102.99592-84.21834,194.41627-84.21834,89.90737,0,166.20072,34.26607,193.06748,81.78488Z"></path>
  <path fill="#e8f7fd" d="M1092.42454 988.59762v34.20024c0 34.33191-27.82055 62.18557-62.18517 62.18557-34.33171 0-62.15266-27.85367-62.15266-62.18557v-35.41697c17.98838 3.18974 37.45602 5.39318 58.66666 6.08364 24.26952.78921 46.00603-1.28256 65.67117-4.86691ZM1216.76277 951.47037v52.353c0 34.33191-27.82055 62.15246-62.15225 62.15246-34.36503 0-62.18597-27.82055-62.18597-62.15246v-15.22575c30.15606-5.52465 55.4444-14.63385 77.44424-22.55904 17.39627-6.24822 32.55619-11.70704 46.89399-14.56821Z"></path>
  <path fill="#e8f7fd" d="m968.08671,987.38089v16.44248c0,34.33191-27.85347,62.15246-62.18557,62.15246s-62.15225-27.82055-62.15225-62.15246v-54.58916c5.88654,2.1376,12.13436,4.47251,18.74427,6.93888,20.78352,7.79372,44.09884,16.54103,71.09727,23.61138,10.88471,2.86098,22.32902,5.45882,34.49629,7.59642Z"></path>
  <path fill="#b972b0" d="m1719.80344,1785.9518c-179.36153,166.8481-394.0513-4.96915-406.8915,4.49761-197.20719,145.23053-520.312,2.53882-520.312,2.53882-253.68189,108.27026-420.3489-24.51945-420.3489-24.51945,0,0-203.62684,79.10798-260.46417-36.74243-56.83733-115.85085,96.51795-219.87721,96.51795-219.87721,0,0-81.79202-68.73399-.54372-163.72838,49.83677-58.32458,156.54673-52.30341,235.21902-38.1212l-27.78352,72.14328-20.71079,53.79066c-20.20338,22.34326-32.13679,51.83187-32.10048,83.31513v.03631c0,6.31118.50785,12.69496,1.48725,19.15137,9.61199,61.26232,62.45956,105.04162,122.59682,105.04162,3.40973,0,6.81947-.14523,10.22876-.43524,41.27679-1.95835,76.96765-23.90268,98.0415-56.07533,22.30651,33.15205,60.17401,54.98746,103.15544,54.98746h4.49761c43.16297-.10892,81.10308-22.19848,103.26436-55.64053,22.23478,33.51467,60.31968,55.64053,103.59112,55.64053h4.13498c43.23558,0,81.32047-22.08956,103.55437-55.60423,22.16217,33.55098,60.17445,55.74945,103.37328,55.85793h4.53392c43.19972,0,81.2483-22.05281,103.4822-55.53117,22.16217,33.58728,60.17445,55.82118,103.44589,55.9301h4.49761c43.19927,0,81.24786-22.05281,103.4822-55.49531,22.16173,33.62359,60.21076,55.89468,103.4822,56.00316l4.13454.03631h.39937c68.40767,0,124.01145-55.38639,124.19299-123.86667.10892-32.31743-12.15125-61.80648-32.31788-83.96777l-21.90758-56.87364-4.2076-10.9177c260.02937-65.46948,187.88521,95.10331,187.88521,95.10331,264.16436,209.28582-81.61049,323.32266-81.61049,323.32266Z"></path>
  <path fill="#643754" d="M1705.48503 706.3294c-15.93943 59.34354-168.81165 219.0526-241.43781 290.15554-26.56619-42.31057-62.27409-77.51057-103.88123-103.37286 10.90003-101.615 45.12333-342.50629 161.58376-337.9352 145.44927 5.70372 204.7537 72.70437 183.73529 151.15252ZM674.1772 893.11208c-41.60715 25.86229-77.27593 61.06228-103.88076 103.33375-72.66622-71.10294-225.49838-230.77289-241.39918-290.11643-21.05752-78.44815 38.24738-145.4488 183.69618-151.15252 116.46043-4.57109 150.68373 236.3202 161.58376 337.9352Z"></path>
</svg>
