<svg width="229" height="231" viewBox="0 0 229 231" fill="none" xmlns="http://www.w3.org/2000/svg">
<circle cx="225.461" cy="4.30463" r="2.5" transform="rotate(119.265 225.461 4.30463)" fill="#D9D9D9"/>
<circle cx="215.406" cy="18.1571" r="2.5" transform="rotate(119.265 215.406 18.1571)" fill="#D9D9D9"/>
<circle cx="202.628" cy="32.7766" r="2.5" transform="rotate(119.265 202.628 32.7766)" fill="#D9D9D9"/>
<circle cx="188.105" cy="46.4183" r="2.5" transform="rotate(119.265 188.105 46.4183)" fill="#D9D9D9"/>
<circle cx="170.966" cy="58.5935" r="2.5" transform="rotate(119.265 170.966 58.5935)" fill="#D9D9D9"/>
<circle cx="152.954" cy="70.2799" r="2.5" transform="rotate(119.265 152.954 70.2799)" fill="#D9D9D9"/>
<circle cx="133.303" cy="78.7551" r="2.5" transform="rotate(119.265 133.303 78.7551)" fill="#D9D9D9"/>
<circle cx="112.012" cy="84.0188" r="2.5" transform="rotate(119.265 112.012 84.0188)" fill="#D9D9D9"/>
<circle cx="88.9768" cy="88.3048" r="2.5" transform="rotate(119.265 88.9768 88.3048)" fill="#D9D9D9"/>
<circle cx="66.9768" cy="97.3048" r="2.5" transform="rotate(119.265 66.9768 97.3048)" fill="#D9D9D9"/>
<circle cx="44.9768" cy="111.305" r="2.5" transform="rotate(119.265 44.9768 111.305)" fill="#D9D9D9"/>
<circle cx="27.9768" cy="129.305" r="2.5" transform="rotate(119.265 27.9768 129.305)" fill="#D9D9D9"/>
<circle cx="13.9768" cy="149.305" r="2.5" transform="rotate(119.265 13.9768 149.305)" fill="#D9D9D9"/>
<circle cx="3.97683" cy="175.305" r="2.5" transform="rotate(119.265 3.97683 175.305)" fill="#D9D9D9"/>
<circle cx="13.9768" cy="204.305" r="2.5" transform="rotate(119.265 13.9768 204.305)" fill="#D9D9D9"/>
<circle cx="29.9768" cy="227.305" r="2.5" transform="rotate(119.265 29.9768 227.305)" fill="#D9D9D9"/>
</svg>
