<svg width="252" height="127" viewBox="0 0 252 127" fill="none" xmlns="http://www.w3.org/2000/svg">
<circle cx="248.5" cy="60.5" r="2.5" fill="#D9D9D9"/>
<path d="M252 77.5C252 78.8807 250.881 80 249.5 80C248.119 80 247 78.8807 247 77.5C247 76.1193 248.119 75 249.5 75C250.881 75 252 76.1193 252 77.5Z" fill="#D9D9D9"/>
<path d="M251 97.5C251 98.8807 249.881 100 248.5 100C247.119 100 246 98.8807 246 97.5C246 96.1193 247.119 95 248.5 95C249.881 95 251 96.1193 251 97.5Z" fill="#D9D9D9"/>
<path d="M245 117.5C245 118.881 243.881 120 242.5 120C241.119 120 240 118.881 240 117.5C240 116.119 241.119 115 242.5 115C243.881 115 245 116.119 245 117.5Z" fill="#D9D9D9"/>
<path d="M230 124.5C230 125.881 228.881 127 227.5 127C226.119 127 225 125.881 225 124.5C225 123.119 226.119 122 227.5 122C228.881 122 230 123.119 230 124.5Z" fill="#D9D9D9"/>
<path d="M214 120.5C214 121.881 212.881 123 211.5 123C210.119 123 209 121.881 209 120.5C209 119.119 210.119 118 211.5 118C212.881 118 214 119.119 214 120.5Z" fill="#D9D9D9"/>
<path d="M199 112.5C199 113.881 197.881 115 196.5 115C195.119 115 194 113.881 194 112.5C194 111.119 195.119 110 196.5 110C197.881 110 199 111.119 199 112.5Z" fill="#D9D9D9"/>
<path d="M182 100.5C182 101.881 180.881 103 179.5 103C178.119 103 177 101.881 177 100.5C177 99.1193 178.119 98 179.5 98C180.881 98 182 99.1193 182 100.5Z" fill="#D9D9D9"/>
<path d="M166 88.5C166 89.8807 164.881 91 163.5 91C162.119 91 161 89.8807 161 88.5C161 87.1193 162.119 86 163.5 86C164.881 86 166 87.1193 166 88.5Z" fill="#D9D9D9"/>
<path d="M151 75.5C151 76.8807 149.881 78 148.5 78C147.119 78 146 76.8807 146 75.5C146 74.1193 147.119 73 148.5 73C149.881 73 151 74.1193 151 75.5Z" fill="#D9D9D9"/>
<path d="M136 63.5C136 64.8807 134.881 66 133.5 66C132.119 66 131 64.8807 131 63.5C131 62.1193 132.119 61 133.5 61C134.881 61 136 62.1193 136 63.5Z" fill="#D9D9D9"/>
<path d="M121 50.5C121 51.8807 119.881 53 118.5 53C117.119 53 116 51.8807 116 50.5C116 49.1193 117.119 48 118.5 48C119.881 48 121 49.1193 121 50.5Z" fill="#D9D9D9"/>
<path d="M105 36.5C105 37.8807 103.881 39 102.5 39C101.119 39 100 37.8807 100 36.5C100 35.1193 101.119 34 102.5 34C103.881 34 105 35.1193 105 36.5Z" fill="#D9D9D9"/>
<path d="M88 22.5C88 23.8807 86.8807 25 85.5 25C84.1193 25 83 23.8807 83 22.5C83 21.1193 84.1193 20 85.5 20C86.8807 20 88 21.1193 88 22.5Z" fill="#D9D9D9"/>
<path d="M70 10.5C70 11.8807 68.8807 13 67.5 13C66.1193 13 65 11.8807 65 10.5C65 9.11929 66.1193 8 67.5 8C68.8807 8 70 9.11929 70 10.5Z" fill="#D9D9D9"/>
<path d="M51 2.5C51 3.88071 49.8807 5 48.5 5C47.1193 5 46 3.88071 46 2.5C46 1.11929 47.1193 0 48.5 0C49.8807 0 51 1.11929 51 2.5Z" fill="#D9D9D9"/>
<path d="M30 3.5C30 4.88071 28.8807 6 27.5 6C26.1193 6 25 4.88071 25 3.5C25 2.11929 26.1193 1 27.5 1C28.8807 1 30 2.11929 30 3.5Z" fill="#D9D9D9"/>
<path d="M15 15.5C15 16.8807 13.8807 18 12.5 18C11.1193 18 10 16.8807 10 15.5C10 14.1193 11.1193 13 12.5 13C13.8807 13 15 14.1193 15 15.5Z" fill="#D9D9D9"/>
<path d="M7 33.5C7 34.8807 5.88071 36 4.5 36C3.11929 36 2 34.8807 2 33.5C2 32.1193 3.11929 31 4.5 31C5.88071 31 7 32.1193 7 33.5Z" fill="#D9D9D9"/>
<path d="M5 55.5C5 56.8807 3.88071 58 2.5 58C1.11929 58 0 56.8807 0 55.5C0 54.1193 1.11929 53 2.5 53C3.88071 53 5 54.1193 5 55.5Z" fill="#D9D9D9"/>
<path d="M7 75.5C7 76.8807 5.88071 78 4.5 78C3.11929 78 2 76.8807 2 75.5C2 74.1193 3.11929 73 4.5 73C5.88071 73 7 74.1193 7 75.5Z" fill="#D9D9D9"/>
<path d="M11 97.5C11 98.8807 9.88071 100 8.5 100C7.11929 100 6 98.8807 6 97.5C6 96.1193 7.11929 95 8.5 95C9.88071 95 11 96.1193 11 97.5Z" fill="#D9D9D9"/>
<path d="M17 119.5C17 120.881 15.8807 122 14.5 122C13.1193 122 12 120.881 12 119.5C12 118.119 13.1193 117 14.5 117C15.8807 117 17 118.119 17 119.5Z" fill="#D9D9D9"/>
<circle cx="245.5" cy="43.5" r="2.5" fill="#D9D9D9"/>
</svg>
