<svg xmlns="http://www.w3.org/2000/svg" width="2000" height="2000" viewBox="0 0 2000 2000" id="devil">
  <path fill="#d6982b" d="m1574.17414,1177.65765c0,29.81965-2.37674,59.11979-6.94436,87.67695-9.6926,60.79162-29.33732,118.38917-57.22628,171.04738-43.48602,82.18139-107.06237,152.44235-184.30464,204.54388-69.258,46.67941-149.47131,78.72756-236.07185,91.72507-2.93364.40844-5.90445.81688-8.83832,1.22532-25.47506,3.41665-51.50724,5.19909-77.94786,5.19909-23.69261,0-47.08808-1.41118-70.00076-4.19636-6.2016-.74299-12.36626-1.59704-18.45657-2.52543-86.63749-13.22008-166.81363-45.56561-235.92317-92.50477-72.00623-48.87075-132.01747-113.59852-174.83507-188.98378-15.70834-27.66639-29.11428-56.78067-39.95808-87.08356-20.83309-58.22857-32.15944-120.87652-32.15944-186.1238,0-29.11474,2.22805-57.70907,6.61004-85.59804.92839-6.01642,1.9683-12.03194,3.1195-17.97402,26.7006-140.89274,106.95085-263.21761,219.21209-345.91895,13.81461-10.21233,28.11177-19.79363,42.85478-28.70585,80.06462-48.53665,173.20109-78.17089,273.05889-82.627,6.31312-.33455,12.70058-.52041,19.08782-.5943,2.45109-.03717,4.93912-.03717,7.38997-.03717,2.48826,0,4.93912,0,7.38997.03717,5.90468.07389,11.80936.22258,17.67664.51995,107.43364,4.53045,207.1432,38.21281,291.21855,93.21059,14.44563,9.43217,28.4087,19.53343,41.88898,30.19137,78.31935,62.01649,139.66742,143.93812,176.02344,237.96559,14.03719,36.31885,24.36103,74.45732,30.52546,113.93261,4.38199,27.88897,6.61027,56.4833,6.61027,85.59804Z"></path>
  <path fill="#e5b052" d="m1537.74409,632.43063c116.56888,0,211.41368-94.8448,211.41368-211.41345s-94.8448-211.4139-211.41368-211.4139-211.4139,94.84434-211.4139,211.4139c0,56.14694,22.03007,107.22987,57.86546,145.1453l-91.20557,127.77692c-68.17752-39.5646-145.39848-65.62489-227.93595-74.38841v-106.98417c85.42487-27.14508,147.49235-107.20584,147.49235-201.50893,0-116.56865-94.8448-211.41345-211.41368-211.41345s-211.4139,94.8448-211.4139,211.41345c0,100.17308,70.07555,184.27835,163.77505,205.94373v101.35261c-77.45238,6.49649-150.46362,28.16368-215.99286,61.99745l-85.51123-119.7999c32.80904-37.25359,52.7627-86.08852,52.7627-139.5346,0-116.56956-94.8448-211.4139-211.4139-211.4139s-211.41368,94.84434-211.41368,211.4139,94.8448,211.41345,211.41368,211.41345c22.85602,0,44.82081-3.70451,65.43926-10.44261l84.95433,119.01928c-103.48048,82.27432-177.1411,199.29221-202.49489,333.07829-1.1512,5.94208-2.19111,11.9576-3.1195,17.97402,8.09556,38.17564,23.39569,74.56838,44.97154,108.54766v.03717c90.09109,142.34108,288.91592,241.30789,519.75151,241.30789,222.7772,0,415.73453-92.13396,509.94785-226.52794,26.73777-38.10129,45.49127-79.61878,54.7752-123.36478-6.16443-39.4753-16.48827-77.61376-30.52546-113.93261-32.78207-84.78433-85.9353-159.67049-153.47704-219.05184l96.19704-134.76978c18.43278,5.2621,37.87078,8.12525,57.98559,8.12525Z"></path>
  <circle cx="1001.137" cy="311.045" r="142.281" fill="#e8f7fd"></circle>
  <circle cx="1537.743" cy="421.028" r="142.281" fill="#e8f7fd"></circle>
  <circle cx="493.344" cy="421.028" r="142.281" fill="#e8f7fd"></circle>
  <circle cx="493.344" cy="421.028" r="81.209" fill="#333"></circle>
  <circle cx="507.597" cy="389.757" r="31.27" fill="#e8f7fd"></circle>
  <path fill="#c78b22" d="m1324.89272,928.92305c-69.28954-63.29725-118.85012-45.4192-176.22124-24.71289-36.32862,13.09716-77.47162,27.94495-134.00143,26.09321-67.13511-2.18855-117.23451-20.97551-157.46839-36.09271-64.98068-24.34258-116.29168-43.60096-173.89871,32.92784-31.74973,42.11953-34.44297,97.60541-7.44064,152.28329,43.16304,87.37021,164.84163,176.15446,339.44725,177.50128,1.04393.0337,2.05415.0337,3.09766.0337,76.66361,0,148.54611-22.08663,208.03837-63.97045,50.2005-35.31839,90.43438-84.71046,110.36597-135.48266,21.27882-54.27407,16.83433-102.31911-11.91884-128.58062Zm-19.42647,116.25778c-33.76977,86.05709-137.87341,178.1073-287.09273,178.1073-.90912,0-1.85153,0-2.79435-.0337-72.42132-.53881-141.10547-17.84435-198.6451-49.99808-50.90741-28.44985-90.29958-67.06791-110.87108-108.74973-21.48062-43.46615-20.0331-85.08057,4.10789-117.1332,22.72635-30.13349,41.5803-41.04211,63.93675-41.04211,19.46017,0,41.614,8.31606,71.27629,19.42688,21.27882,7.97946,45.14979,16.93523,72.79163,24.17407,27.64225,7.27234,59.05496,12.82775,95.38317,14.00607,62.89324,2.05374,109.28875-14.64579,146.52608-28.07955,54.77898-19.72999,87.84183-31.64862,142.08158,17.91155,17.77715,16.22832,19.05699,51.27751,3.29987,91.4105Z"></path>
  <path fill="#cb624b" d="m1305.46625,1045.18083c-16.83433,42.89384-51.10921,87.26911-99.79396,120.97147-48.95436,33.97177-112.45341,57.13582-187.29877,57.13582-.90912,0-1.85153,0-2.79435-.0337-72.42132-.53881-141.10547-17.84435-198.6451-49.99808-2.69366-1.51493-5.35361-3.03006-7.97987-4.61259-47.03502-27.94495-83.39693-64.67737-102.89121-104.13714-21.48062-43.46615-20.0331-85.08057,4.10789-117.1332,22.72635-30.13349,41.5803-41.04211,63.93675-41.04211,15.01609,0,31.64821,4.94919,52.08532,12.32264,6.02682,2.18855,12.42354,4.57909,19.19097,7.10424,21.27882,7.97946,45.14979,16.93523,72.79163,24.17407,11.14411,2.92916,22.86115,5.58891,35.31839,7.77745,18.41707,3.26576,38.34865,5.52171,60.06478,6.22862,24.8479.80801,47.10242-1.31313,67.23622-4.9829,30.87472-5.65631,56.76572-14.98259,79.28986-23.09665,17.81085-6.39713,33.33206-11.98603,48.01154-14.9154,30.504-6.06032,57.47263-.60601,94.07004,32.82694,17.77715,16.22832,19.05699,51.27751,3.29987,91.4105Z"></path>
  <path fill="#9e4c3a" d="m1205.67229,1166.1523c-48.95436,33.97177-112.45341,57.13582-187.29877,57.13582-.90912,0-1.85153,0-2.79435-.0337-72.42132-.53881-141.10547-17.84435-198.6451-49.99808-2.69366-1.51493-5.35361-3.03006-7.97987-4.61259,26.22802-49.96418,105.45047-86.22539,199.04951-86.22539,92.05,0,170.16154,35.08269,197.66857,83.73394Z"></path>
  <path fill="#e8f7fd" d="m1080.79493,958.95544v35.01528c0,35.15009-28.48356,63.66755-63.66714,63.66755-35.14988,0-63.63385-28.51746-63.63385-63.66755v-36.26101c18.41707,3.26576,38.34865,5.52171,60.06478,6.22862,24.8479.80801,47.10242-1.31313,67.23622-4.9829Z"></path>
  <circle cx="997.701" cy="305.129" r="81.209" fill="#333"></circle>
  <circle cx="1011.954" cy="273.858" r="31.27" fill="#e8f7fd"></circle>
  <circle cx="1537.744" cy="410.936" r="81.209" fill="#333"></circle>
  <circle cx="1551.997" cy="379.666" r="31.27" fill="#e8f7fd"></circle>
  <path fill="#d6982b" d="M1326.1073 1648.20432v183.37579c0 37.99023-30.82261 68.77544-68.81239 68.77544h-98.85529c-37.98978 0-68.81261-30.78521-68.81261-68.77544v-98.92918c86.60055-12.9975 166.81386-45.04566 236.07185-91.72507.29715 2.37629.40844 4.82737.40844 7.27846ZM914.38349 1732.35356v99.22656c0 37.99023-30.78544 68.77544-68.77522 68.77544h-98.89246c-37.99 0-68.77544-30.78521-68.77544-68.77544v-183.37579c0-2.82235.18563-5.60753.51995-8.35554 69.10954 46.93916 149.28567 79.28469 235.92317 92.50477Z"></path>
  <path fill="#e5b052" d="M1892.92742 948.18698c-42.39885 66.08455-228.07064 232.11715-325.73505 317.37813 4.57923-28.5553 6.96788-57.85447 6.97999-87.67412.01183-29.11474-2.20483-57.70997-6.57548-85.60071-6.14839-39.4778-16.45673-77.62046-30.47916-113.94501 13.51793-92.61126 42.04997-213.17927 120.92562-211.69842 127.93168 2.35393 293.07539 90.84144 234.88407 181.54013ZM463.58985 1363.56347c-13.22102 93.20568-41.34637 218.08128-121.6332 216.60075-127.93167-2.39201-293.07538-90.8419-234.88407-181.54104 43.66214-68.05189 239.17823-242.06476 334.2051-324.76466-1.15361 5.94161-2.19597 11.9567-3.12681 17.97275-4.39332 27.88719-6.633 56.48061-6.64483 85.59534-.02652 65.24727 11.27438 127.89982 32.0838 186.13685Z"></path>
</svg>
